<svg xmlns="http://www.w3.org/2000/svg" viewBox="0 0 512 512">
  <defs>
    <style>
      .cls-1 {
        fill: #559aff;
      }

      .cls-2 {
        fill: #257dff;
      }

      .cls-3 {
        fill: #6aa7ff;
      }

      .cls-4 {
        fill: #5399ff;
      }

      .cls-5 {
        fill: #428fff;
      }

      .cls-6 {
        fill: #82b5ff;
      }

      .cls-7 {
        fill: #9ac3ff;
      }

      .cls-8 {
        fill: #3888ff;
      }
    </style>
  </defs>
  <title>E Commerce_512px</title>
  <g id="Jewel">
    <g>
      <path class="cls-1" d="M231.00645,46.32689,46.32689,231.00645a85.3333,85.3333,0,0,0-24.99356,60.33977V448A42.66667,42.66667,0,0,0,64,490.66667H448A42.66667,42.66667,0,0,0,490.66667,448V64A42.66667,42.66667,0,0,0,448,21.33333H291.34622A85.3333,85.3333,0,0,0,231.00645,46.32689Z"/>
      <path class="cls-2" d="M209.67311,46.32689,46.32689,209.67311a85.33332,85.33332,0,0,0-24.99356,60.33978V448A42.66667,42.66667,0,0,0,64,490.66667H448A42.66667,42.66667,0,0,0,490.66667,448V64A42.66667,42.66667,0,0,0,448,21.33333H270.01289A85.33332,85.33332,0,0,0,209.67311,46.32689Z"/>
      <polygon class="cls-3" points="128 128 128 384 384 128 128 128"/>
      <path class="cls-4" d="M128,384V128L46.32682,209.67318a84.97122,84.97122,0,0,0-19.86328,32.17708Z"/>
      <path class="cls-5" d="M26.46354,241.85026A84.96385,84.96385,0,0,0,21.33333,270.013V448a42.53318,42.53318,0,0,0,12.4974,30.16927L128,384Z"/>
      <path class="cls-6" d="M241.849,26.46354a84.94639,84.94639,0,0,0-32.17578,19.86328L128,128H384Z"/>
      <path class="cls-7" d="M384,128l94.16927-94.16927A42.53089,42.53089,0,0,0,448,21.33333H270.013A84.97142,84.97142,0,0,0,241.849,26.46354Z"/>
      <path class="cls-8" d="M384,128,128,384,469.76042,484.51823a42.59042,42.59042,0,0,0,14.75781-14.75781Z"/>
      <path class="cls-1" d="M384,128,484.51823,469.76042A42.25685,42.25685,0,0,0,490.66667,448V64a42.5286,42.5286,0,0,0-12.4974-30.16927Z"/>
    </g>
  </g>
</svg>
